<?xml version="1.0" standalone="no"?>
<!DOCTYPE svg PUBLIC "-//W3C//DTD SVG 20010904//EN"
 "http://www.w3.org/TR/2001/REC-SVG-20010904/DTD/svg10.dtd">
<svg version="1.0" xmlns="http://www.w3.org/2000/svg"
 width="379.000000pt" height="379.000000pt" viewBox="0 0 379.000000 379.000000"
 preserveAspectRatio="xMidYMid meet">
<metadata>
Created by potrace 1.11, written by Peter Selinger 2001-2013
</metadata>
<g transform="translate(0.000000,379.000000) scale(0.100000,-0.100000)"
fill="#000000" stroke="none">
<path d="M1349 3737 c-74 -31 -120 -67 -164 -131 -68 -99 -65 -44 -65 -1142 0
-546 -4 -995 -8 -998 -4 -2 -14 -1 -21 4 -8 4 -26 4 -42 0 -15 -5 -30 -6 -33
-2 -4 3 -17 6 -31 7 -21 0 -24 -3 -19 -20 8 -27 136 -249 146 -253 4 -2 8 -8
8 -14 0 -16 134 -247 147 -252 10 -4 45 51 131 204 26 47 121 211 132 230 57
91 55 112 -11 100 -21 -4 -39 -4 -39 0 0 3 -13 5 -30 2 l-30 -4 0 928 c0 575
4 942 10 963 13 47 54 103 88 123 35 21 94 30 182 28 36 -1 72 -1 80 -1 8 0
29 1 45 0 17 0 37 0 45 0 231 1 385 -1 391 -4 4 -3 10 -1 14 5 4 6 11 8 16 5
8 -5 197 -9 224 -4 6 1 14 1 19 0 12 -3 207 -3 221 0 6 1 14 1 19 0 4 -1 110
-1 235 -1 124 1 235 1 246 1 11 0 40 -1 65 -1 97 -1 156 -36 195 -115 19 -39
20 -66 23 -960 2 -636 0 -931 -8 -957 -12 -44 -52 -93 -89 -112 -23 -12 -188
-21 -281 -15 -26 1 -43 1 -75 0 -11 -1 -40 -1 -65 0 -25 1 -64 1 -87 0 l-43
-1 0 -130 0 -130 183 -1 c385 -1 465 1 512 16 68 20 119 60 162 124 l38 56 0
1120 0 1120 -27 57 c-27 57 -99 138 -124 138 -8 0 -14 4 -14 8 0 29 -92 32
-1146 32 l-1069 0 -56 -23z"/>
<path d="M1618 3352 c-16 -3 -18 -16 -18 -93 l0 -89 888 2 887 3 3 70 c4 92
-2 115 -29 110 -26 -5 -57 -6 -214 -6 -66 0 -127 0 -135 0 -8 0 -127 0 -265 0
-137 0 -254 0 -260 0 -5 0 -98 0 -205 1 -107 0 -199 0 -205 -1 -5 -1 -14 -1
-18 0 -7 1 -183 2 -242 1 -11 -1 -42 0 -69 0 -26 1 -50 -1 -53 -4 -3 -3 -15
-1 -27 3 -11 4 -29 6 -38 3z"/>
<path d="M1600 3010 l0 -90 890 0 890 0 -1 90 -1 90 -889 0 -889 0 0 -90z"/>
<path d="M2543 2778 c-10 -12 -237 -401 -282 -480 l-21 -38 85 0 85 0 0 -922
0 -921 -25 -43 c-14 -23 -40 -52 -59 -63 -33 -21 -38 -21 -975 -21 -908 0
-943 1 -979 19 -54 28 -102 83 -113 127 -12 55 -12 1789 1 1836 6 20 24 50 42
67 56 54 95 61 360 61 l238 0 0 151 0 150 -322 -3 c-218 -2 -330 -7 -343 -14
-11 -7 -37 -20 -58 -30 -47 -23 -117 -96 -149 -155 l-23 -44 0 -1100 0 -1100
27 -46 c33 -56 108 -125 168 -153 45 -21 50 -21 1135 -24 l1090 -3 67 26 c88
34 153 93 189 170 l29 60 0 987 0 987 80 3 80 3 -62 105 c-33 58 -64 107 -67
110 -3 3 -17 27 -31 55 -14 27 -33 58 -42 67 -10 10 -17 21 -17 26 2 10 -85
161 -92 162 -4 0 -11 -6 -16 -12z"/>
<path d="M450 780 l0 -90 890 0 890 0 0 90 0 90 -890 0 -890 0 0 -90z"/>
<path d="M450 530 l0 -90 890 0 890 0 0 90 0 90 -890 0 -890 0 0 -90z"/>
</g>
</svg>
